<svg width="300" height="56" viewBox="0 0 300 56" xmlns="http://www.w3.org/2000/svg">
<path d="M94.5098 34.0381C93.0098 36.0281 90.9699 37.0181 88.3999 37.0181C85.8299 37.0181 83.8297 35.9981 81.9897 33.9581C80.1597 31.9181 79.2397 29.5281 79.2397 26.7981C79.2397 24.0681 80.0697 21.6481 81.7197 19.6381C83.4097 17.5981 85.4599 16.5781 87.8599 16.5781C90.2599 16.5781 92.16 17.2481 93.71 18.5781L92.9497 19.4781C91.5397 17.9681 89.8401 17.2081 87.8501 17.2081C85.8601 17.2081 84.3497 18.1481 83.1597 20.0281C82.0297 21.8181 81.4697 24.0681 81.4697 26.7981C81.4697 29.5281 82.1299 31.7381 83.4399 33.5681C84.7599 35.4481 86.4101 36.3881 88.3901 36.3881C90.6801 36.3881 92.4397 35.3781 93.6597 33.3681L94.5 34.0281L94.5098 34.0381Z" fill="white"/>
<path d="M116.53 36.8088H114.49C112.29 31.1688 110.1 25.5188 107.92 19.8688L101.37 36.8088H100.67L108.57 16.4688L116.53 36.8088Z" fill="white"/>
<path d="M135.45 22.2287C135.45 23.7587 134.8 25.0487 133.51 26.1187C132.22 27.1787 130.68 27.6987 128.9 27.6687C128.5 27.6687 128.17 27.6687 127.9 27.6587V27.0587H128.48C130.08 27.0587 131.34 26.5787 132.25 25.6087C133.1 24.7287 133.52 23.5987 133.52 22.2087C133.52 18.9487 131.66 17.3487 127.93 17.3887H125.95V36.8287H124.03V16.8487C124.99 16.8287 126.48 16.8187 128.51 16.8187C133.14 16.7887 135.45 18.5987 135.45 22.2487" fill="white"/>
<path d="M173.52 36.8095H171.67V28.4695C171.67 25.8895 170.77 24.5995 168.96 24.5995C167.15 24.5995 165.84 25.7295 165.2 27.9995V36.8095H163.36V24.2595H165.2V25.9795C166.2 24.6195 167.48 23.9395 169.05 23.9395C170.52 23.9395 171.61 24.2395 172.31 24.8595C173.12 25.5695 173.52 26.7695 173.52 28.4695V36.8095Z" fill="white"/>
<path d="M190.82 28.7284V36.8084H188.98V35.8284C188.26 36.5984 187.23 36.9884 185.9 36.9884C184.68 36.9884 183.65 36.6584 182.82 35.9884C181.91 35.2684 181.45 34.2884 181.45 33.0384C181.45 31.7884 181.93 30.7084 182.87 29.9384C183.46 29.4584 184.12 29.1484 184.84 29.0084C185.76 28.8284 186.76 28.9384 187.64 29.2484L187.41 29.8784C186.24 29.4084 184.69 29.4584 183.94 30.5284C183.51 31.1484 183.3 32.0084 183.3 33.1184C183.3 34.0884 183.55 34.8684 184.04 35.4584C184.53 36.0484 185.14 36.3484 185.87 36.3484C187.13 36.3484 188.17 35.7084 188.99 34.4284V28.7284C188.99 26.0484 188.06 24.7084 186.2 24.7084C185.08 24.7084 184.09 25.0484 183.21 25.7484L182.77 25.0384C183.62 24.3984 184.76 24.0684 186.19 24.0684C189.28 24.0684 190.82 25.6184 190.82 28.7284Z" fill="white"/>
<path d="M200.59 17.5H198.75V36.82H200.59V17.5Z" fill="white"/>
<path d="M219.54 24.1699L212.53 41.5899H211.88L213.93 36.4999L208.55 24.1699H210.61L214.92 34.0799L218.89 24.1699H219.54Z" fill="white"/>
<path d="M234.28 33.7698C234.2 34.7498 233.83 35.5298 233.14 36.1098C232.46 36.6898 231.6 36.9898 230.57 36.9898C229.15 36.9898 227.95 36.5098 226.98 35.5398L227.56 34.7198C228.41 35.8098 229.41 36.3498 230.57 36.3498C231.28 36.3498 231.84 36.1298 232.26 35.6998C232.68 35.2698 232.89 34.6998 232.89 33.9998C232.89 33.1698 232.51 32.4898 231.76 31.9398C231.23 31.5898 230.46 31.0598 229.42 30.3598C228.04 29.4298 227.34 28.3098 227.34 27.0098C227.34 26.0598 227.72 25.3198 228.48 24.7798C229.16 24.3198 229.99 24.0898 230.98 24.0898C231.56 24.0898 232.15 24.2398 232.75 24.5398C233.35 24.8298 233.79 25.1798 234.07 25.5798L233.44 26.2698C232.66 25.2498 231.79 24.7398 230.83 24.7398C229.54 24.7398 228.83 25.2598 228.7 26.2998C228.6 27.1398 229.02 27.8698 229.94 28.4898C231.34 29.4298 232.23 30.0498 232.61 30.3398C233.82 31.2498 234.37 32.3998 234.25 33.7698" fill="white"/>
<path d="M244.1 24.25H242.25V36.81H244.1V24.25Z" fill="white"/>
<path d="M244.24 18.7006C244.24 19.0006 244.13 19.2506 243.93 19.4606C243.72 19.6706 243.47 19.7806 243.18 19.7806C242.89 19.7806 242.63 19.6806 242.42 19.4606C242.21 19.2506 242.1 19.0006 242.1 18.7006C242.1 18.4006 242.21 18.1506 242.42 17.9506C242.63 17.7406 242.88 17.6406 243.18 17.6406C243.48 17.6406 243.72 17.7406 243.93 17.9506C244.14 18.1506 244.24 18.4106 244.24 18.7006Z" fill="white"/>
<path d="M259.35 33.7698C259.27 34.7498 258.9 35.5298 258.21 36.1098C257.53 36.6898 256.67 36.9898 255.64 36.9898C254.21 36.9898 253.02 36.5098 252.05 35.5398L252.63 34.7198C253.48 35.8098 254.48 36.3498 255.64 36.3498C256.35 36.3498 256.91 36.1298 257.33 35.6998C257.75 35.2698 257.96 34.6998 257.96 33.9998C257.96 33.1698 257.58 32.4898 256.83 31.9398C256.3 31.5898 255.53 31.0598 254.49 30.3598C253.11 29.4298 252.42 28.3098 252.42 27.0098C252.42 26.0598 252.8 25.3198 253.56 24.7798C254.24 24.3198 255.07 24.0898 256.06 24.0898C256.64 24.0898 257.23 24.2398 257.83 24.5398C258.43 24.8298 258.87 25.1798 259.15 25.5798L258.52 26.2698C257.74 25.2498 256.87 24.7398 255.91 24.7398C254.62 24.7398 253.91 25.2598 253.78 26.2998C253.68 27.1398 254.1 27.8698 255.02 28.4898C256.42 29.4298 257.31 30.0498 257.69 30.3398C258.91 31.2498 259.45 32.3998 259.33 33.7698" fill="white"/>
<path d="M155.88 36.8107H153.84C151.64 31.1707 149.45 25.5207 147.27 19.8707L140.72 36.8107H140.02L147.92 16.4707L155.88 36.8107Z" fill="white"/>
<path d="M33.7397 46.98C30.8397 48.19 27.6897 48.86 24.4297 48.86C11.0297 48.86 0 37.83 0 24.43C0 11.03 11.0297 0 24.4297 0C34.7597 0 44.2301 6.68 47.5801 16.63H46.4897C43.5297 8.38 34.4099 1.36 25.3999 1.36C12.0099 1.36 3.3098 11.51 3.2998 24.42C3.2998 37.34 12.0099 47.48 25.3999 47.48C28.0699 47.48 30.75 46.87 33.29 45.8L33.75 46.97L33.7397 46.98ZM47.5801 32.23C45.5701 38.21 41.2598 43.1 35.8198 46L35.3599 44.81C40.4099 42.06 44.6197 37.47 46.4897 32.24H47.5801V32.23Z" fill="white"/>
<path d="M42.8301 56.8799H39.2197C33.9397 43.3199 28.6697 29.7499 23.4297 16.1799L7.69971 56.8799H6.02979L24.3701 9.66992L42.8301 56.8799Z" fill="white"/>
</svg>
